<svg xmlns="http://www.w3.org/2000/svg" xmlns:xlink="http://www.w3.org/1999/xlink" version="1.1" width="256" height="256" viewBox="0 0 256 256" xml:space="preserve">
<g style="stroke: none; stroke-width: 0; stroke-dasharray: none; stroke-linecap: butt; stroke-linejoin: miter; stroke-miterlimit: 10; fill: none; fill-rule: nonzero; opacity: 1;" transform="translate(1.4065934065934016 1.4065934065934016) scale(2.81 2.81)">
	<linearGradient id="SVGID_1" gradientUnits="userSpaceOnUse" x1="23.3333" y1="16.7959" x2="75.2736" y2="84.4078">
<stop offset="0%" style="stop-color:rgb(9,182,209);stop-opacity: 1"/>
<stop offset="93.25%" style="stop-color:rgb(116,53,230);stop-opacity: 1"/>
<stop offset="100%" style="stop-color:rgb(124,44,231);stop-opacity: 1"/>
</linearGradient>
<path d="M 75.896 90 H 14.104 C 6.315 90 0 83.685 0 75.896 V 14.104 C 0 6.315 6.315 0 14.104 0 h 61.791 C 83.685 0 90 6.315 90 14.104 v 61.791 C 90 83.685 83.685 90 75.896 90 z" style="stroke: none; stroke-width: 1; stroke-dasharray: none; stroke-linecap: butt; stroke-linejoin: miter; stroke-miterlimit: 10; fill: url(#SVGID_1); fill-rule: nonzero; opacity: 1;" transform=" matrix(1 0 0 1 0 0) " stroke-linecap="round"/>
	<path d="M 78.288 48.973 c -0.115 0 -0.219 0.074 -0.273 0.23 c -0.692 1.975 -1.627 3.15 -2.397 3.15 c -0.442 0 -0.621 -0.493 -0.621 -1.266 c 0 -1.934 1.158 -6.036 1.742 -7.906 c 0.068 -0.226 0.111 -0.429 0.111 -0.601 c 0 -0.544 -0.297 -0.81 -1.033 -0.81 c -0.793 0 -1.647 0.311 -2.478 1.766 c -0.287 -1.283 -1.154 -1.843 -2.366 -1.843 c -1.401 0 -2.755 0.901 -3.869 2.363 s -2.424 1.941 -3.409 1.705 c 0.709 -1.735 0.972 -3.031 0.972 -3.993 c 0 -1.509 -0.746 -2.42 -1.951 -2.42 c -1.833 0 -2.89 1.749 -2.89 3.588 c 0 1.421 0.645 2.883 2.063 3.592 c -1.188 2.687 -2.923 5.117 -3.582 5.117 c -0.851 0 -1.1 -4.162 -1.053 -7.14 c 0.03 -1.708 0.172 -1.796 0.172 -2.312 c 0 -0.297 -0.192 -0.5 -0.965 -0.5 c -1.803 0 -2.36 1.526 -2.444 3.278 c -0.027 0.666 -0.131 1.326 -0.311 1.968 c -0.753 2.687 -2.306 4.726 -3.318 4.726 c -0.469 0 -0.597 -0.469 -0.597 -1.084 c 0 -1.934 1.084 -4.351 1.084 -6.414 c 0 -1.516 -0.665 -2.474 -1.917 -2.474 c -1.475 0 -3.426 1.755 -5.273 5.043 c 0.608 -2.518 0.857 -4.956 -0.942 -4.956 c -0.39 0.006 -0.774 0.105 -1.117 0.29 c -0.236 0.11 -0.381 0.354 -0.365 0.614 c 0.172 2.68 -2.16 9.546 -4.372 9.546 c -0.402 0 -0.597 -0.435 -0.597 -1.138 c 0 -1.938 1.154 -6.029 1.735 -7.902 c 0.074 -0.243 0.115 -0.452 0.115 -0.635 c 0 -0.513 -0.317 -0.776 -1.036 -0.776 c -0.79 0 -1.647 0.3 -2.474 1.755 c -0.29 -1.283 -1.158 -1.843 -2.37 -1.843 c -1.988 0 -4.209 2.103 -5.185 4.844 c -1.306 3.659 -3.939 7.194 -7.484 7.194 c -3.217 0 -4.915 -2.677 -4.915 -6.907 c 0 -6.107 4.483 -11.096 7.808 -11.096 c 1.59 0 2.349 1.013 2.349 2.566 c 0 1.88 -1.05 2.755 -1.05 3.47 c 0 0.219 0.182 0.435 0.544 0.435 c 1.445 0 3.146 -1.698 3.146 -4.014 c 0 -2.316 -1.88 -4.01 -5.205 -4.01 c -5.496 0 -11.025 5.529 -11.025 12.615 c 0 5.637 2.782 9.037 7.592 9.037 c 3.281 0 6.147 -2.552 7.693 -5.529 c 0.176 2.468 1.296 3.757 3.004 3.757 c 1.519 0 2.748 -0.905 3.686 -2.495 c 0.361 1.664 1.32 2.478 2.566 2.478 c 1.428 0 2.623 -0.905 3.76 -2.586 c -0.017 1.32 0.284 2.562 1.428 2.562 c 0.54 0 1.185 -0.125 1.3 -0.598 c 1.205 -4.982 4.182 -9.05 5.094 -9.05 c 0.27 0 0.344 0.26 0.344 0.567 c 0 1.354 -0.955 4.128 -0.955 5.901 c 0 1.914 0.814 3.18 2.495 3.18 c 1.863 0 3.757 -2.282 5.02 -5.617 c 0.395 3.116 1.249 5.631 2.586 5.631 c 1.641 0 4.554 -3.453 6.319 -7.109 c 0.692 0.088 1.732 0.064 2.731 -0.641 c -0.425 1.077 -0.675 2.255 -0.675 3.433 c 0 3.393 1.62 4.344 3.015 4.344 c 1.516 0 2.744 -0.905 3.686 -2.495 c 0.311 1.435 1.104 2.474 2.562 2.474 c 2.282 0 4.263 -2.333 4.263 -4.247 C 78.757 49.28 78.541 48.973 78.288 48.973 z M 30.923 52.173 c -0.922 0 -1.283 -0.928 -1.283 -2.312 c 0 -2.404 1.644 -6.417 3.382 -6.417 c 0.76 0 1.046 0.895 1.046 1.988 C 34.07 47.873 32.507 52.173 30.923 52.173 z M 62.489 45 c -0.55 -0.655 -0.749 -1.546 -0.749 -2.339 c 0 -0.979 0.358 -1.806 0.786 -1.806 s 0.56 0.422 0.56 1.009 C 63.087 42.846 62.736 44.281 62.489 45 z M 69.636 52.173 c -0.922 0 -1.283 -1.067 -1.283 -2.312 c 0 -2.319 1.644 -6.417 3.396 -6.417 c 0.76 0 1.03 0.888 1.03 1.988 C 72.778 47.873 71.242 52.173 69.636 52.173 z" style="stroke: none; stroke-width: 1; stroke-dasharray: none; stroke-linecap: butt; stroke-linejoin: miter; stroke-miterlimit: 10; fill: rgb(255,255,255); fill-rule: nonzero; opacity: 1;" transform=" matrix(1 0 0 1 0 0) " stroke-linecap="round"/>
</g>
</svg>